<svg xmlns="http://www.w3.org/2000/svg" xmlns:xlink="http://www.w3.org/1999/xlink" version="1.1" viewBox="14.99 67.66 120.02 14.67">
<g id="surface1">
<path style=" stroke:none;fill-rule:nonzero;fill:rgb(0%,19.607843%,51.764709%);fill-opacity:1;" d="M 28.320312 74.917969 C 28.320312 79.121094 25.375 82.191406 20.738281 82.191406 L 14.988281 82.191406 L 14.988281 67.664062 L 20.738281 67.664062 C 25.375 67.664062 28.320312 70.652344 28.320312 74.917969 Z M 20.429688 78.628906 C 22.757812 78.628906 24.222656 77.308594 24.222656 74.917969 C 24.222656 72.507812 22.757812 71.167969 20.429688 71.167969 L 19.027344 71.167969 L 19.027344 78.628906 Z M 20.429688 78.628906 "/>
<path style=" stroke:none;fill-rule:nonzero;fill:rgb(0%,19.607843%,51.764709%);fill-opacity:1;" d="M 33.742188 82.191406 L 29.703125 82.191406 L 29.703125 70.632812 L 33.742188 70.632812 L 33.742188 72.671875 C 34.605469 71.414062 35.925781 70.527344 37.472656 70.527344 L 37.472656 74.835938 L 36.339844 74.835938 C 34.667969 74.835938 33.742188 75.371094 33.742188 77.144531 Z M 33.742188 82.191406 "/>
<path style=" stroke:none;fill-rule:nonzero;fill:rgb(0%,19.607843%,51.764709%);fill-opacity:1;" d="M 43.695312 82.335938 C 40.273438 82.335938 37.820312 80.089844 37.820312 76.402344 C 37.820312 72.734375 40.234375 70.488281 43.695312 70.488281 C 47.117188 70.488281 49.527344 72.691406 49.527344 76.277344 C 49.527344 76.585938 49.507812 76.917969 49.464844 77.226562 L 41.820312 77.226562 C 41.902344 78.566406 42.625 79.101562 43.53125 79.101562 C 44.3125 79.101562 44.746094 78.667969 44.972656 78.195312 L 49.28125 78.195312 C 48.746094 80.5625 46.582031 82.335938 43.695312 82.335938 Z M 41.839844 75.269531 L 45.40625 75.269531 C 45.40625 74.238281 44.601562 73.679688 43.675781 73.679688 C 42.707031 73.679688 42.027344 74.214844 41.839844 75.269531 Z M 41.839844 75.269531 "/>
<path style=" stroke:none;fill-rule:nonzero;fill:rgb(0%,19.607843%,51.764709%);fill-opacity:1;" d="M 55.011719 70.488281 C 56.660156 70.488281 57.8125 71.207031 58.410156 72.238281 L 58.410156 70.632812 L 62.449219 70.632812 L 62.449219 82.191406 L 58.410156 82.191406 L 58.410156 80.585938 C 57.8125 81.617188 56.636719 82.335938 55.011719 82.335938 C 52.269531 82.335938 50.085938 80.089844 50.085938 76.402344 C 50.085938 72.710938 52.269531 70.488281 55.011719 70.488281 Z M 56.308594 74.011719 C 55.152344 74.011719 54.207031 74.835938 54.207031 76.402344 C 54.207031 77.945312 55.152344 78.8125 56.308594 78.8125 C 57.441406 78.8125 58.410156 77.96875 58.410156 76.402344 C 58.410156 74.855469 57.441406 74.011719 56.308594 74.011719 Z M 56.308594 74.011719 "/>
<path style=" stroke:none;fill-rule:nonzero;fill:rgb(0%,19.607843%,51.764709%);fill-opacity:1;" d="M 80.070312 75.988281 C 80.070312 74.730469 79.308594 74.03125 78.152344 74.03125 C 76.976562 74.03125 76.238281 74.730469 76.238281 75.988281 L 76.238281 82.191406 L 72.199219 82.191406 L 72.199219 75.988281 C 72.199219 74.730469 71.457031 74.03125 70.300781 74.03125 C 69.105469 74.03125 68.363281 74.730469 68.363281 75.988281 L 68.363281 82.191406 L 64.324219 82.191406 L 64.324219 70.632812 L 68.363281 70.632812 L 68.363281 72.15625 C 69.023438 71.230469 70.15625 70.527344 71.722656 70.527344 C 73.453125 70.527344 74.816406 71.3125 75.578125 72.652344 C 76.359375 71.476562 77.71875 70.527344 79.429688 70.527344 C 82.359375 70.527344 84.109375 72.425781 84.109375 75.453125 L 84.109375 82.191406 L 80.070312 82.191406 Z M 80.070312 75.988281 "/>
<path style=" stroke:none;fill-rule:nonzero;fill:rgb(27.450982%,78.039217%,94.117647%);fill-opacity:1;" d="M 88.046875 67.664062 L 99.792969 67.664062 L 99.792969 70.878906 L 95.917969 70.878906 L 95.917969 82.191406 L 91.878906 82.191406 L 91.878906 70.878906 L 88.046875 70.878906 Z M 88.046875 67.664062 "/>
<path style=" stroke:none;fill-rule:nonzero;fill:rgb(27.450982%,78.039217%,94.117647%);fill-opacity:1;" d="M 106.242188 82.335938 C 102.800781 82.335938 100.203125 80.089844 100.203125 76.402344 C 100.203125 72.734375 102.820312 70.488281 106.261719 70.488281 C 109.703125 70.488281 112.320312 72.734375 112.320312 76.402344 C 112.320312 80.089844 109.683594 82.335938 106.242188 82.335938 Z M 106.242188 78.832031 C 107.273438 78.832031 108.222656 78.070312 108.222656 76.402344 C 108.222656 74.753906 107.292969 73.988281 106.261719 73.988281 C 105.234375 73.988281 104.328125 74.753906 104.328125 76.402344 C 104.328125 78.070312 105.191406 78.832031 106.242188 78.832031 Z M 106.242188 78.832031 "/>
<path style=" stroke:none;fill-rule:nonzero;fill:rgb(27.450982%,78.039217%,94.117647%);fill-opacity:1;" d="M 125.367188 82.191406 L 121.308594 82.191406 L 121.308594 80.542969 C 120.648438 81.53125 119.433594 82.296875 117.804688 82.296875 C 115.125 82.296875 113.457031 80.398438 113.457031 77.347656 L 113.457031 70.628906 L 117.472656 70.628906 L 117.472656 76.832031 C 117.472656 78.171875 118.238281 78.957031 119.390625 78.957031 C 120.566406 78.957031 121.308594 78.171875 121.308594 76.832031 L 121.308594 70.628906 L 125.367188 70.628906 Z M 125.367188 82.191406 "/>
<path style=" stroke:none;fill-rule:nonzero;fill:rgb(27.450982%,78.039217%,94.117647%);fill-opacity:1;" d="M 131.28125 82.191406 L 127.242188 82.191406 L 127.242188 70.632812 L 131.28125 70.632812 L 131.28125 72.671875 C 132.148438 71.414062 133.464844 70.527344 135.011719 70.527344 L 135.011719 74.835938 L 133.878906 74.835938 C 132.210938 74.835938 131.28125 75.371094 131.28125 77.144531 Z M 131.28125 82.191406 "/>
</g>
</svg>